PathFileType	4	(X/Y/Z)	C:/Users/beibeiliu/ov580/test_trc\sequence.27_training_dense_left.trc
DataRate	CameraRate	NumFrames	NumMarkers	Units	OrigDataRate	OrigDataStartFrame	OrigNumFrames
120	120	7	19	mm	120	83	331
Frame#	Time	ThumbCMC			ThumbMCP			ThumbIP			ThumbTip			IndexMCP			IndexPIP			IndexTip			MiddleMCP			MiddlePIP			MiddleTip			RingMCP			RingPIP			RingTip			PinkyMCP			PinkyPIP			PinkyTip			BackHand1			BackHand2			BackHand3	
		X0	Y0	Z0	X1	Y1	Z1	X2	Y2	Z2	X3	Y3	Z3	X4	Y4	Z4	X5	Y5	Z5	X6	Y6	Z6	X7	Y7	Z7	X8	Y8	Z8	X9	Y9	Z9	X10	Y10	Z10	X11	Y11	Z11	X12	Y12	Z12	X13	Y13	Z13	X14	Y14	Z14	X15	Y15	Z15	X16	Y16	Z16	X17	Y17	Z17	X18	Y18	Z18	
82	0.683333	-212.553	31.7288	19.1382	-188.836	35.5225	3.76278	-172.924	36.3651	-18.8848	-160.907	34.5619	-34.0405	-216.533	21.7552	-45.8701	-206.021	23.6092	-64.3667	-194.858	22.5114	-83.7207	-206.683	1.15513	-45.9956	-180.467	5.33279	-64.9511	-153.017	6.11548	-66.7757	-204.724	-19.6895	-40.763	-190.074	-22.278	-58.4739	-174.555	-14.7945	-75.0378	-203.956	-36.8995	-21.3274	-198.592	-45.4699	-38.7746	-192.583	-52.4156	-54.6988	-226.93	-17.9363	-0.135451	-233.489	-16.8816	26.6859	-237.022	4.70956	12.9165	
83	0.691667	-214.351	30.9764	22.4758	-188.508	39.9243	3.43272	-175.015	38.0735	-15.9312	-159.642	39.0822	-31.9789	-218.133	23.0442	-43.9897	-207.401	23.7108	-64.9825	-198.69	26.03	-83.9091	-204.899	0.196882	-49.4241	-181.438	3.35581	-62.8281	-155.055	7.39287	-63.2477	-206.397	-18.1386	-39.187	-191.936	-20.1326	-58.4206	-174.273	-17.2828	-75.243	-204.125	-37.7143	-21.0161	-198.755	-45.5078	-36.7379	-195.398	-49.1545	-57.8315	-225.839	-19.9947	1.25153	-232.305	-19.49	27.583	-237.967	6.52026	11.0328	
84	0.7	-216.152	33.7565	17.9358	-189.452	41.467	1.91348	-173.97	45.7596	-15.2966	-159.319	43.4182	-28.5069	-219.547	22.7758	-44.0076	-206.345	23.1231	-67.9098	-200.159	28.0606	-83.8732	-204.01	5.23326	-49.0395	-181.764	5.44021	-62.1166	-152.493	14.4462	-59.8079	-204.482	-18.5268	-40.2943	-188.684	-16.1025	-61.2999	-172.42	-12.6153	-75.6641	-204.434	-34.5744	-24.3268	-197.1	-44.1544	-37.2853	-195.136	-47.6465	-56.4161	-227.199	-20.6383	0.327901	-233.142	-16.942	28.9371	-239.132	7.87125	10.2791	
85	0.708333	-217.936	34.5913	19.6471	-191.826	40.349	2.26022	-176.142	43.5619	-12.851	-159.817	46.687	-27.8887	-216.852	20.0157	-46.2916	-207.14	21.683	-63.5294	-197.467	24.9785	-84.6128	-203.558	4.49715	-47.2227	-176.182	11.1607	-60.6138	-151.579	18.708	-54.6177	-200.477	-19.8845	-39.3165	-186.686	-14.4682	-59.251	-166.59	-13.1876	-73.3917	-198.912	-38.2839	-22.5374	-192.816	-41.8082	-35.8794	-187.089	-52.0945	-55.7987	-223.406	-20.4626	3.24601	-232.545	-16.5594	24.5003	-238.935	7.09877	12.1425	
86	0.716667	-220.885	32.2378	20.0233	-193.957	43.7855	3.81791	-178.1	50.2421	-9.30779	-158.768	49.7734	-27.0737	-215.095	16.8705	-44.011	-206.287	22.468	-66.3421	-195.121	23.8004	-86.6493	-199.046	-0.550385	-43.8116	-175.456	9.21918	-57.2706	-145.033	21.9998	-47.1801	-196.09	-17.1809	-36.8939	-177.853	-16.1135	-57.1999	-163.644	-12.2689	-67.846	-194.574	-33.5801	-19.2282	-185.978	-39.7755	-36.7061	-179.225	-50.896	-48.6974	-219.785	-20.5106	6.07219	-232.093	-17.7346	24.1436	-239.653	4.96281	9.64582	
87	0.725	-221.622	33.0301	20.2487	-194.9	46.617	5.14428	-178.272	46.6917	-9.39395	-160.018	53.4047	-21.9014	-212.679	15.1685	-45.6641	-202.928	17.7903	-63.8782	-192.884	21.0895	-84.7266	-195.574	1.85659	-45.1866	-171.372	11.5375	-56.0854	-147.301	23.3361	-45.7124	-191.337	-20.7863	-33.4504	-176.285	-15.8562	-52.4916	-157.487	-10.1666	-65.7266	-189.955	-33.5661	-15.3613	-179.412	-43.5512	-30.7197	-172.429	-51.2528	-43.6338	-218.512	-22.7013	5.90758	-230.01	-20.3733	30.0608	-237.639	1.73847	9.94472	
88	0.733333	-221.462	31.1215	18.4533	-196.729	43.8928	6.43996	-177.497	51.375	-11.2167	-158.92	49.5792	-22.2996	-211.064	12.6214	-41.7688	-199.955	17.7287	-66.0778	-190.338	17.3364	-81.4408	-189.801	-2.36104	-43.9466	-165.458	9.42846	-52.9594	-145.882	24.5198	-44.7399	-187.656	-21.8669	-29.3423	-173.3	-17.054	-48.7831	-154.967	-12.4321	-61.7319	-186.809	-34.4636	-13.4378	-177.29	-41.0656	-26.5027	-168.587	-52.4733	-38.182	-217.458	-22.1583	7.85657	-227.433	-23.3556	29.0806	-234.214	0.510821	6.74187	
